# xmcd CD database file
#
# Track frame offsets:
#	150
#	29987
#	53851
#	80427
#	105721
#	133135
#	164860
#	206160
#	244018
#	261992
#	284282
#
# Disc length: 4109 seconds
#
# Revision: 0
# Processed by: cddbd v1.5.2PL0 Copyright (c) Steve Scherf et al.
# Submitted via: CDex 1.51
#
DISCID=af100b0b
DTITLE=Various Artist - Blue Note Highlights [CD2) Saxophone #2
DYEAR=2009
DGENRE=Jazz
TTITLE0=Stanley Turrentine - Thomasville
TTITLE1=Leo Parker - Glad Lad
TTITLE2=Booker Ervin - In A Capricornian Way
TTITLE3=Clifford Jordan and John Gilmore - Status Quo
TTITLE4=Tina Brooks - For Heaven's Sake
TTITLE5=Frank Foster - Little Miss No Nose
TTITLE6=John Coltrane - Moment's Notice
TTITLE7=Eric Dolphy - Straight Up And Down
TTITLE8=Lou Donaldson - It's You Or No One
TTITLE9=Gil Melle - Moonlight In Vermont
TTITLE10=Ike Quebec - Like
EXTD=YEAR: 2009
EXTT0=
EXTT1=
EXTT2=
EXTT3=
EXTT4=
EXTT5=
EXTT6=
EXTT7=
EXTT8=
EXTT9=
EXTT10=
PLAYORDER=
